<svg width="50" height="50" viewBox="0 0 96 96" fill="none" xmlns="http://www.w3.org/2000/svg">
<path fill-rule="evenodd" clip-rule="evenodd" d="M0 0.3396H96V95.6661H0V0.3396ZM73.388 80.255C68.936 80.255 66.42 77.9513 64.488 74.8134L57.156 79.0436C59.804 84.2389 65.216 88.2028 73.596 88.2028C82.164 88.2028 88.544 83.786 88.544 75.719C88.544 68.2399 84.216 64.9154 76.552 61.6465L74.296 60.6892C70.424 59.021 68.748 57.9367 68.748 55.2477C68.748 53.075 70.428 51.4108 73.068 51.4108C75.656 51.4108 77.324 52.4951 78.872 55.2477L85.896 50.7713C82.924 45.58 78.804 43.598 73.068 43.598C65.012 43.598 59.856 48.7138 59.856 55.4344C59.856 62.7229 64.176 66.1745 70.688 68.927L72.944 69.8882C77.06 71.6756 79.512 72.7639 79.512 75.8342C79.512 78.4001 77.124 80.255 73.388 80.255ZM38.428 80.1954C35.328 80.1954 34.036 78.0903 32.62 75.588L25.276 80.0048C27.404 84.4772 31.588 88.187 38.808 88.187C46.804 88.187 52.28 83.9648 52.28 74.6903V44.1064H43.26V74.5712C43.26 79.0475 41.388 80.1954 38.424 80.1954H38.428Z" fill="#EAEAEA"/>
</svg>
