<svg width="50" height="50" viewBox="0 0 108 96" fill="none" xmlns="http://www.w3.org/2000/svg">
<g clip-path="url(#clip0_81_261)">
<path d="M63.164 47.5617C63.164 48.8188 62.9164 50.0636 62.4353 51.2251C61.9542 52.3865 61.2491 53.4418 60.3602 54.3307C59.4713 55.2196 58.416 55.9247 57.2546 56.4058C56.0932 56.8869 54.8484 57.1345 53.5913 57.1345C52.3342 57.1345 51.0894 56.8869 49.928 56.4058C48.7665 55.9247 47.7112 55.2196 46.8223 54.3307C45.9334 53.4418 45.2283 52.3865 44.7472 51.2251C44.2662 50.0636 44.0186 48.8188 44.0186 47.5617C44.0186 45.0229 45.0271 42.588 46.8223 40.7928C48.6176 38.9976 51.0524 37.989 53.5913 37.989C56.1301 37.989 58.565 38.9976 60.3602 40.7928C62.1554 42.588 63.164 45.0229 63.164 47.5617Z" fill="#EAEAEA"/>
<path d="M53.5876 69.4877C41.8204 69.7892 30.0827 68.1712 18.8358 64.6973L19.6025 64.8999C14.4855 63.2753 9.71578 60.712 5.53731 57.341L5.62072 57.4046C4.03826 56.2692 2.71892 54.8063 1.75248 53.1154C0.786039 51.4245 0.195174 49.5452 0.0200854 47.6055L0.0161133 47.5538C0.0161133 41.2223 6.95534 35.0259 18.6094 30.9823C28.5873 27.6974 40.0706 25.8027 51.9948 25.8027L53.6512 25.8146H53.5677C65.5427 25.6334 77.4659 27.4236 88.8597 31.1134L88.0852 30.8949C93.0199 32.4736 97.6365 34.913 101.721 38.1003L101.626 38.0288C103.179 39.113 104.476 40.5233 105.427 42.1609C106.378 43.7986 106.959 45.6242 107.131 47.5101L107.135 47.5618C107.135 54.1395 99.3738 60.7968 86.8657 64.9357C77.4797 67.8313 66.6875 69.4996 55.5061 69.4996C54.8309 69.4996 54.1596 69.4917 53.4883 69.4797H53.5876V69.4877ZM53.5876 30.4024C53.1666 30.3944 52.6661 30.3944 52.1656 30.3944C40.722 30.3944 29.6995 32.1898 19.3602 35.5144L20.1188 35.3039C9.40215 39.0417 4.59593 44.1537 4.59593 47.5658C4.59593 51.1128 9.76361 56.7015 21.092 60.5704C30.0252 63.3389 40.293 64.9357 50.9343 64.9357C51.8677 64.9357 52.7972 64.9238 53.7227 64.8999L53.5876 64.9039C64.6212 65.1181 75.6197 63.5926 86.1786 60.3837L85.4358 60.5783C97.1931 56.6698 102.595 51.081 102.595 47.5499C102.404 46.3368 101.965 45.1762 101.304 44.1408C100.644 43.1053 99.7773 42.2173 98.7581 41.5322L98.7264 41.5123C95.1832 38.7648 91.1922 36.6497 86.9293 35.2602L86.6512 35.1808C77.2453 32.1382 66.4214 30.3825 55.1923 30.3825C54.6283 30.3825 54.0682 30.3865 53.5082 30.3944H53.5916L53.5876 30.4024Z" fill="#EAEAEA"/>
<path d="M31.868 95.2744L31.6575 95.2783C29.8582 95.2783 28.17 94.8056 26.7123 93.9795L26.7639 94.0073C21.2904 90.8296 19.3838 81.7256 21.6797 69.6147C24.4482 57.19 28.9367 46.2032 34.9623 36.2492L34.6882 36.7417C40.3873 26.564 47.66 17.3516 56.2368 9.44558L56.3162 9.37408C60.037 5.97543 64.3205 3.2497 68.9752 1.31869L69.2652 1.21145C70.8818 0.43292 72.7805 -0.0198975 74.7864 -0.0198975C76.7764 -0.0198975 78.6632 0.428948 80.3473 1.22734L80.2679 1.19556C85.9678 4.4765 87.8585 14.5418 85.1853 27.4351C82.3254 39.2203 77.9641 49.5994 72.2284 59.049L72.5064 58.5604C66.739 69.007 59.76 77.9521 51.5894 85.646L51.5338 85.6977C47.6741 89.2307 43.2043 92.0329 38.3425 93.9675L38.0486 94.0708C36.2215 94.7898 34.1083 95.2307 31.8959 95.2823H31.872L31.868 95.2744ZM36.6544 37.8897L38.6365 39.0336C33.151 48.09 28.8453 58.6001 26.2992 69.7775L26.1641 70.4925C24.047 81.6501 26.0887 88.359 29.024 90.059C29.7827 90.4642 30.6804 90.6985 31.6337 90.6985L31.876 90.6945H31.8641C35.6574 90.6945 41.6275 88.2914 48.5309 82.2658C56.3846 74.8542 63.0462 66.274 68.2801 56.8286L68.5502 56.2923C74.008 47.285 78.0598 37.4977 80.5658 27.2683L80.7167 26.5454C83.2152 14.3988 81.0583 6.96303 77.9919 5.18353C76.8316 4.73938 75.5914 4.54247 74.3506 4.60539C73.1098 4.66832 71.8959 4.98971 70.7865 5.54896L70.8382 5.52513C66.5888 7.27289 62.6802 9.75491 59.2913 12.8576L59.3191 12.8338C51.2231 20.2835 44.34 28.9518 38.9185 38.5252L38.6444 39.0495L36.6544 37.8897Z" fill="#EAEAEA"/>
<path d="M75.3109 95.33C70.1234 95.33 63.5536 92.2039 56.6818 86.2895C48.0595 78.4437 40.7343 69.2818 34.9784 59.1443L34.6924 58.6001C29.0123 49.2697 24.5596 38.4418 21.9221 26.9227L21.7792 26.1879C21.0974 23.1141 20.7577 19.9742 20.7663 16.8257C20.7663 14.7324 20.9132 12.6789 21.1953 10.665L21.1675 10.8954C21.3254 9.00558 21.8951 7.17326 22.8365 5.52707C23.778 3.88088 25.0684 2.46074 26.6171 1.36636L26.6569 1.33856C32.3369 -1.95827 42.009 1.43389 51.8478 10.1884C59.8837 17.7834 66.7362 26.5398 72.1769 36.1658L72.4629 36.7139C78.3673 46.2923 82.7139 56.7471 85.3404 67.6882L85.4914 68.427C86.1388 71.2432 86.5122 74.4805 86.5122 77.8012C86.5122 80.0931 86.3374 82.3413 85.9958 84.5378L86.0276 84.2915C85.8362 86.2295 85.2303 88.1037 84.251 89.7869C83.2716 91.4701 81.9417 92.923 80.3515 94.047L80.3078 94.0748C78.8458 94.9025 77.1935 95.3351 75.5135 95.33L75.299 95.326H75.3109V95.33ZM38.6565 56.3122C44.2012 66.1715 51.267 75.094 59.5934 82.7504L59.6728 82.8219C68.2764 90.2219 75.1004 91.8226 78.0556 90.1067C81.126 88.3351 83.3742 81.0662 81.0506 69.3208C78.2622 57.8414 73.9525 47.7365 68.2644 38.5729L68.5226 39.0177C63.2915 29.6198 56.6648 21.0699 48.8688 13.66L48.8211 13.6163C39.5503 5.37816 32.039 3.52717 28.9686 5.29872C28.0148 6.0697 27.2311 7.03003 26.6671 8.1191C26.1031 9.20818 25.7709 10.4024 25.6917 11.6263V11.6541C25.0744 16.2881 25.2924 20.9952 26.3351 25.5524L26.2835 25.2902C28.9567 37.0158 33.2227 47.371 38.9227 56.765L38.6605 56.3003L38.6565 56.3122Z" fill="#EAEAEA"/>
</g>
<defs>
<clipPath id="clip0_81_261">
<rect width="107.246" height="95.33" fill="white"/>
</clipPath>
</defs>
</svg>
