<svg width="50" height="50" viewBox="0 0 96 96" fill="none" xmlns="http://www.w3.org/2000/svg">
<g clip-path="url(#clip0_81_249)">
<path d="M93.062 3.48458e-06H2.26409C1.66325 0.00105574 1.08738 0.240476 0.662898 0.665706C0.238413 1.09094 2.56931e-06 1.66722 3.49073e-06 2.26806V93.0659C-0.000519764 93.3639 0.0577882 93.6591 0.171584 93.9345C0.285379 94.2099 0.452423 94.4601 0.663136 94.6708C0.873849 94.8816 1.12409 95.0486 1.3995 95.1624C1.67491 95.2762 1.97007 95.3345 2.26806 95.334H93.0659C93.3638 95.334 93.6587 95.2753 93.9339 95.1613C94.2091 95.0473 94.4591 94.8803 94.6697 94.6697C94.8803 94.4591 95.0474 94.209 95.1613 93.9339C95.2753 93.6587 95.334 93.3638 95.334 93.0659V2.26409C95.3335 1.96625 95.2743 1.67142 95.1598 1.39644C95.0454 1.12147 94.8779 0.871733 94.6669 0.661493C94.4559 0.451253 94.2056 0.284627 93.9302 0.171128C93.6548 0.0576297 93.3598 -0.000518594 93.062 3.48458e-06ZM56.7452 50.9459H45.397V86.2498H36.3168V50.9459H24.9685V43.1249H56.7452V50.9459ZM59.2873 84.232V74.7983C59.2873 74.7983 64.4431 78.683 70.6276 78.683C76.8122 78.683 76.5738 74.6394 76.5738 74.0833C76.5738 68.2166 59.049 68.2166 59.049 55.212C59.049 37.5282 84.5855 44.5072 84.5855 44.5072L84.2678 52.9121C84.2678 52.9121 79.9859 50.0562 75.1479 50.0562C70.3099 50.0562 68.5661 52.36 68.5661 54.8148C68.5661 61.1582 86.2498 60.5266 86.2498 73.2929C86.2498 92.9547 59.2873 84.236 59.2873 84.236V84.232Z" fill="#EAEAEA"/>
</g>
<defs>
<clipPath id="clip0_81_249">
<rect width="95.33" height="95.33" fill="white"/>
</clipPath>
</defs>
</svg>
